<svg width="33" height="33" viewBox="0 0 33 33" fill="none" xmlns="http://www.w3.org/2000/svg">
<path d="M16.5 8.9375C15.0043 8.9375 13.5421 9.38103 12.2985 10.212C11.0549 11.043 10.0855 12.2241 9.51316 13.606C8.94077 14.9878 8.79101 16.5084 9.08281 17.9754C9.37461 19.4424 10.0949 20.7899 11.1525 21.8475C12.2101 22.9051 13.5576 23.6254 15.0246 23.9172C16.4916 24.209 18.0122 24.0592 19.394 23.4868C20.7759 22.9145 21.957 21.9451 22.788 20.7015C23.619 19.4579 24.0625 17.9957 24.0625 16.5C24.0602 14.495 23.2627 12.5728 21.845 11.155C20.4272 9.73725 18.505 8.93976 16.5 8.9375ZM16.5 22.6875C15.2762 22.6875 14.0799 22.3246 13.0624 21.6447C12.0449 20.9648 11.2518 19.9985 10.7835 18.8679C10.3152 17.7372 10.1926 16.4931 10.4314 15.2929C10.6701 14.0926 11.2594 12.9901 12.1248 12.1248C12.9901 11.2594 14.0926 10.6701 15.2929 10.4314C16.4931 10.1926 17.7372 10.3152 18.8679 10.7835C19.9985 11.2518 20.9648 12.0449 21.6447 13.0624C22.3246 14.0799 22.6875 15.2762 22.6875 16.5C22.6857 18.1405 22.0332 19.7132 20.8732 20.8732C19.7132 22.0332 18.1405 22.6857 16.5 22.6875ZM24.0625 0H8.9375C6.56795 0.00268396 4.29622 0.945173 2.6207 2.6207C0.945173 4.29622 0.00268396 6.56795 0 8.9375V24.0625C0.00268396 26.432 0.945173 28.7038 2.6207 30.3793C4.29622 32.0548 6.56795 32.9973 8.9375 33H24.0625C26.432 32.9973 28.7038 32.0548 30.3793 30.3793C32.0548 28.7038 32.9973 26.432 33 24.0625V8.9375C32.9973 6.56795 32.0548 4.29622 30.3793 2.6207C28.7038 0.945173 26.432 0.00268396 24.0625 0ZM31.625 24.0625C31.6227 26.0675 30.8252 27.9897 29.4075 29.4075C27.9897 30.8252 26.0675 31.6227 24.0625 31.625H8.9375C6.9325 31.6227 5.01026 30.8252 3.59251 29.4075C2.17475 27.9897 1.37726 26.0675 1.375 24.0625V8.9375C1.37726 6.9325 2.17475 5.01026 3.59251 3.59251C5.01026 2.17475 6.9325 1.37726 8.9375 1.375H24.0625C26.0675 1.37726 27.9897 2.17475 29.4075 3.59251C30.8252 5.01026 31.6227 6.9325 31.625 8.9375V24.0625ZM26.8125 7.5625C26.8125 7.83445 26.7319 8.10029 26.5808 8.32641C26.4297 8.55253 26.2149 8.72876 25.9637 8.83283C25.7124 8.9369 25.436 8.96413 25.1692 8.91108C24.9025 8.85803 24.6575 8.72707 24.4652 8.53477C24.2729 8.34247 24.142 8.09747 24.0889 7.83075C24.0359 7.56403 24.0631 7.28756 24.1672 7.03631C24.2712 6.78506 24.4475 6.57032 24.6736 6.41923C24.8997 6.26814 25.1656 6.1875 25.4375 6.1875C25.802 6.18792 26.1515 6.33292 26.4093 6.59069C26.6671 6.84846 26.8121 7.19796 26.8125 7.5625Z" fill="#A96D8E"/>
</svg>
